<?xml version="1.0" standalone="no"?>
<!DOCTYPE svg PUBLIC "-//W3C//DTD SVG 20010904//EN"
 "http://www.w3.org/TR/2001/REC-SVG-20010904/DTD/svg10.dtd">
<svg version="1.0" xmlns="http://www.w3.org/2000/svg"
 width="216.000000pt" height="216.000000pt" viewBox="0 0 216.000000 216.000000"
 preserveAspectRatio="xMidYMid meet">

<g transform="translate(0.000000,216.000000) scale(0.100000,-0.100000)"
fill="#000000" stroke="none">
<path d="M960 2150 c-385 -45 -718 -295 -870 -651 -231 -544 24 -1176 570
-1408 319 -136 677 -110 979 71 70 41 202 148 166 133 -140 -57 -371 -100
-483 -90 -68 6 -176 37 -186 53 -3 4 55 8 127 8 199 -1 363 37 529 120 87 44
196 114 202 131 3 8 -14 23 -42 36 -88 44 -137 52 -320 52 -94 0 -172 1 -172
3 0 14 148 67 227 81 l98 18 -90 21 c-275 65 -512 48 -820 -59 -196 -67 -357
-66 -497 4 -35 17 -84 52 -109 78 -52 53 -99 139 -99 180 0 24 5 27 56 37 107
22 185 74 355 238 168 162 204 185 314 206 65 12 66 13 77 53 21 72 14 174
-16 241 -15 32 -35 67 -44 78 -17 18 -16 19 46 12 145 -16 311 -80 449 -172
265 -179 497 -533 603 -920 11 -43 23 -86 26 -94 7 -20 59 103 85 199 137 521
-138 1065 -641 1268 -169 69 -345 93 -520 73z"/>
</g>
</svg>
